Cmon Man (2012) DVDrip Xvid-THS

Format: AVI
Format/Info: Audio Video Interleave
File size: 1.40 GiB
Duration: 1h 41mn
Overall bit rate: 1 980 Kbps

SOURCE ... DVDR HOKNOWS INC..THANKS BRO

Video
ID: 0
Format: MPEG-4 Visual
Format profile: Advanced Simple@L5
Format settings, BVOP: 2
Format settings, QPel: No
Format settings, GMC: No warppoints
Format settings, Matrix: Default (H.263)
Codec ID: XVID
Codec ID/Hint: XviD
Duration: 1h 41mn
Bit rate: 1 588 Kbps
Width: 720 pixels
Height: 400 pixels
Display aspect ratio: 16:9
Frame rate: 23.976 fps
Color space: YUV
Chroma subsampling: 4:2:0
Bit depth: 8 bits
Scan type: Progressive
Compression mode: Lossy
Bits/(Pixel*Frame): 0.230
Stream size: 1.12 GiB (80%)
Writing library: XviD 1.2.1 (UTC 2008-12-04)

Audio
ID: 1
Format: AC-3
Format/Info: Audio Coding 3
Mode extension: CM (complete main)
Format settings, Endianness: Big
Codec ID: 2000
Duration: 1h 41mn
Bit rate mode: Constant
Bit rate: 384 Kbps
Channel(s): 6 channels
Channel positions: Front: L C R, Side: L R, LFE
Sampling rate: 48.0 KHz
Bit depth: 16 bits
Compression mode: Lossy
Stream size: 278 MiB (19%)
Alignment: Aligned on interleaves
Interleave, duration: 64 ms (1.53 video frames)
Interleave, preload duration: 192 ms
Title: VTS_01_1 T80 3_2ch 448Kbps DELAY 0ms_new


IMDB Link: http://www.imdb.com/title/tt1764664/


Poster:

 
http://i.imgur.com/cRFEF.jpg


Screenshots:

 
http://i.imgur.com/QzKW4.jpg


ENJOY!